<svg width="51" height="30" viewBox="0 0 51 30" fill="none" xmlns="http://www.w3.org/2000/svg">
<rect width="51" height="30" rx="6" fill="#FFBC5B"/>
<path d="M17.8245 21.216C17.0925 21.216 16.4385 21.102 15.8625 20.874C15.2985 20.634 14.8185 20.304 14.4225 19.884C14.0265 19.452 13.7205 18.936 13.5045 18.336C13.3005 17.724 13.1985 17.04 13.1985 16.284C13.1985 15.384 13.3365 14.538 13.6125 13.746C13.8885 12.942 14.2425 12.21 14.6745 11.55C15.1185 10.878 15.6105 10.278 16.1505 9.75C16.6905 9.222 17.2305 8.784 17.7705 8.436H20.9745C20.2185 8.964 19.5405 9.474 18.9405 9.966C18.3525 10.446 17.8365 10.938 17.3925 11.442C16.9605 11.946 16.5945 12.474 16.2945 13.026C16.0065 13.566 15.7905 14.16 15.6465 14.808L15.7905 14.844C15.9105 14.604 16.0545 14.376 16.2225 14.16C16.3905 13.932 16.5885 13.734 16.8165 13.566C17.0565 13.386 17.3265 13.248 17.6265 13.152C17.9385 13.044 18.2985 12.99 18.7065 12.99C19.2345 12.99 19.7265 13.08 20.1825 13.26C20.6385 13.44 21.0285 13.704 21.3525 14.052C21.6885 14.388 21.9525 14.796 22.1445 15.276C22.3365 15.756 22.4325 16.296 22.4325 16.896C22.4325 17.532 22.3245 18.114 22.1085 18.642C21.8925 19.17 21.5805 19.626 21.1725 20.01C20.7765 20.394 20.2905 20.694 19.7145 20.91C19.1505 21.114 18.5205 21.216 17.8245 21.216ZM17.8065 19.362C18.5265 19.362 19.0725 19.176 19.4445 18.804C19.8165 18.42 20.0025 17.88 20.0025 17.184V16.968C20.0025 16.272 19.8105 15.738 19.4265 15.366C19.0545 14.994 18.5145 14.808 17.8065 14.808C17.1225 14.808 16.5885 14.994 16.2045 15.366C15.8205 15.738 15.6285 16.272 15.6285 16.968V17.184C15.6285 17.88 15.8145 18.42 16.1865 18.804C16.5585 19.176 17.0985 19.362 17.8065 19.362ZM25.5035 21.198C24.8795 21.198 24.4355 21.066 24.1715 20.802C23.9075 20.538 23.7755 20.214 23.7755 19.83V19.29C23.7755 18.906 23.9075 18.582 24.1715 18.318C24.4355 18.054 24.8795 17.922 25.5035 17.922C26.1275 17.922 26.5715 18.054 26.8355 18.318C27.0995 18.582 27.2315 18.906 27.2315 19.29V19.83C27.2315 20.214 27.0995 20.538 26.8355 20.802C26.5715 21.066 26.1275 21.198 25.5035 21.198ZM32.7325 13.512C33.4885 13.512 34.0405 13.362 34.3885 13.062C34.7485 12.762 34.9285 12.384 34.9285 11.928V11.802C34.9285 11.286 34.7545 10.884 34.4065 10.596C34.0705 10.308 33.6025 10.164 33.0025 10.164C32.4265 10.164 31.9225 10.296 31.4905 10.56C31.0585 10.824 30.6865 11.196 30.3745 11.676L28.8445 10.308C29.0605 10.02 29.3005 9.75 29.5645 9.498C29.8405 9.234 30.1465 9.012 30.4825 8.832C30.8305 8.64 31.2145 8.49 31.6345 8.382C32.0545 8.274 32.5345 8.22 33.0745 8.22C33.7105 8.22 34.2925 8.298 34.8205 8.454C35.3605 8.598 35.8165 8.814 36.1885 9.102C36.5725 9.39 36.8665 9.738 37.0705 10.146C37.2865 10.542 37.3945 10.992 37.3945 11.496C37.3945 11.892 37.3285 12.252 37.1965 12.576C37.0645 12.9 36.8845 13.182 36.6565 13.422C36.4405 13.662 36.1825 13.86 35.8825 14.016C35.5945 14.172 35.2825 14.286 34.9465 14.358V14.448C35.3185 14.52 35.6665 14.64 35.9905 14.808C36.3145 14.964 36.5965 15.168 36.8365 15.42C37.0765 15.672 37.2685 15.978 37.4125 16.338C37.5565 16.686 37.6285 17.082 37.6285 17.526C37.6285 18.078 37.5145 18.582 37.2865 19.038C37.0585 19.494 36.7345 19.884 36.3145 20.208C35.9065 20.532 35.4085 20.784 34.8205 20.964C34.2445 21.132 33.5965 21.216 32.8765 21.216C32.2765 21.216 31.7425 21.15 31.2745 21.018C30.8065 20.898 30.3925 20.73 30.0325 20.514C29.6725 20.298 29.3605 20.052 29.0965 19.776C28.8325 19.488 28.5985 19.194 28.3945 18.894L30.1405 17.544C30.4405 18.048 30.7945 18.462 31.2025 18.786C31.6225 19.11 32.1925 19.272 32.9125 19.272C33.6325 19.272 34.1845 19.11 34.5685 18.786C34.9645 18.45 35.1625 17.988 35.1625 17.4V17.256C35.1625 16.68 34.9525 16.242 34.5325 15.942C34.1125 15.63 33.5185 15.474 32.7505 15.474H31.4905V13.512H32.7325Z" fill="black"/>
</svg>
