<svg width="51" height="30" viewBox="0 0 51 30" fill="none" xmlns="http://www.w3.org/2000/svg">
<rect width="51" height="30" rx="6" fill="#FFBC5B"/>
<path d="M21.6945 10.488H15.9345L15.6285 14.7H15.7725C15.9165 14.436 16.0725 14.196 16.2405 13.98C16.4085 13.752 16.6005 13.56 16.8165 13.404C17.0445 13.248 17.2965 13.128 17.5725 13.044C17.8605 12.96 18.1905 12.918 18.5625 12.918C19.0905 12.918 19.5885 13.008 20.0565 13.188C20.5245 13.368 20.9325 13.626 21.2805 13.962C21.6285 14.298 21.8985 14.712 22.0905 15.204C22.2945 15.696 22.3965 16.254 22.3965 16.878C22.3965 17.502 22.2885 18.078 22.0725 18.606C21.8685 19.134 21.5625 19.596 21.1545 19.992C20.7585 20.376 20.2665 20.676 19.6785 20.892C19.1025 21.108 18.4365 21.216 17.6805 21.216C17.0925 21.216 16.5645 21.15 16.0965 21.018C15.6405 20.898 15.2385 20.73 14.8905 20.514C14.5425 20.298 14.2365 20.052 13.9725 19.776C13.7085 19.488 13.4805 19.194 13.2885 18.894L14.9985 17.544C15.1425 17.784 15.2985 18.012 15.4665 18.228C15.6465 18.432 15.8445 18.612 16.0605 18.768C16.2765 18.924 16.5165 19.05 16.7805 19.146C17.0565 19.23 17.3685 19.272 17.7165 19.272C18.4365 19.272 18.9825 19.08 19.3545 18.696C19.7385 18.3 19.9305 17.76 19.9305 17.076V16.932C19.9305 16.272 19.7385 15.756 19.3545 15.384C18.9705 15.012 18.4305 14.826 17.7345 14.826C17.2065 14.826 16.7745 14.928 16.4385 15.132C16.1145 15.324 15.8505 15.534 15.6465 15.762L13.7205 15.492L14.1885 8.436H21.6945V10.488ZM25.5035 21.198C24.8795 21.198 24.4355 21.066 24.1715 20.802C23.9075 20.538 23.7755 20.214 23.7755 19.83V19.29C23.7755 18.906 23.9075 18.582 24.1715 18.318C24.4355 18.054 24.8795 17.922 25.5035 17.922C26.1275 17.922 26.5715 18.054 26.8355 18.318C27.0995 18.582 27.2315 18.906 27.2315 19.29V19.83C27.2315 20.214 27.0995 20.538 26.8355 20.802C26.5715 21.066 26.1275 21.198 25.5035 21.198ZM37.7365 21H28.8805V18.804L32.9125 15.366C33.5845 14.79 34.0825 14.268 34.4065 13.8C34.7305 13.32 34.8925 12.81 34.8925 12.27V12.09C34.8925 11.49 34.7245 11.034 34.3885 10.722C34.0525 10.41 33.5845 10.254 32.9845 10.254C32.3245 10.254 31.8205 10.434 31.4725 10.794C31.1245 11.154 30.8725 11.598 30.7165 12.126L28.6645 11.352C28.7965 10.944 28.9825 10.554 29.2225 10.182C29.4745 9.798 29.7805 9.462 30.1405 9.174C30.5125 8.886 30.9505 8.658 31.4545 8.49C31.9585 8.31 32.5345 8.22 33.1825 8.22C33.8545 8.22 34.4485 8.316 34.9645 8.508C35.4925 8.688 35.9365 8.946 36.2965 9.282C36.6565 9.606 36.9265 9.996 37.1065 10.452C37.2985 10.908 37.3945 11.406 37.3945 11.946C37.3945 12.462 37.3105 12.936 37.1425 13.368C36.9865 13.8 36.7645 14.214 36.4765 14.61C36.1885 14.994 35.8465 15.366 35.4505 15.726C35.0665 16.086 34.6465 16.446 34.1905 16.806L31.4545 19.02H37.7365V21Z" fill="black"/>
</svg>
