<svg width="51" height="30" viewBox="0 0 51 30" fill="none" xmlns="http://www.w3.org/2000/svg">
<rect width="51" height="30" rx="6" fill="#FFBC5B"/>
<path d="M17.7705 21.216C17.0265 21.216 16.3665 21.126 15.7905 20.946C15.2145 20.754 14.7285 20.496 14.3325 20.172C13.9365 19.848 13.6365 19.464 13.4325 19.02C13.2285 18.576 13.1265 18.09 13.1265 17.562C13.1265 16.734 13.3545 16.068 13.8105 15.564C14.2785 15.06 14.8905 14.706 15.6465 14.502V14.358C14.9985 14.13 14.4765 13.776 14.0805 13.296C13.6965 12.816 13.5045 12.21 13.5045 11.478C13.5045 10.998 13.6005 10.56 13.7925 10.164C13.9845 9.756 14.2605 9.408 14.6205 9.12C14.9805 8.832 15.4245 8.61 15.9525 8.454C16.4805 8.298 17.0865 8.22 17.7705 8.22C18.4545 8.22 19.0605 8.298 19.5885 8.454C20.1165 8.61 20.5605 8.832 20.9205 9.12C21.2805 9.408 21.5565 9.756 21.7485 10.164C21.9405 10.56 22.0365 10.998 22.0365 11.478C22.0365 12.21 21.8385 12.816 21.4425 13.296C21.0585 13.776 20.5425 14.13 19.8945 14.358V14.502C20.6505 14.706 21.2565 15.06 21.7125 15.564C22.1805 16.068 22.4145 16.734 22.4145 17.562C22.4145 18.09 22.3125 18.576 22.1085 19.02C21.9045 19.464 21.6045 19.848 21.2085 20.172C20.8125 20.496 20.3265 20.754 19.7505 20.946C19.1745 21.126 18.5145 21.216 17.7705 21.216ZM17.7705 19.38C18.4785 19.38 19.0185 19.224 19.3905 18.912C19.7745 18.588 19.9665 18.144 19.9665 17.58V17.22C19.9665 16.644 19.7805 16.2 19.4085 15.888C19.0365 15.564 18.4905 15.402 17.7705 15.402C17.0505 15.402 16.5045 15.564 16.1325 15.888C15.7605 16.2 15.5745 16.644 15.5745 17.22V17.58C15.5745 18.144 15.7605 18.588 16.1325 18.912C16.5165 19.224 17.0625 19.38 17.7705 19.38ZM17.7705 13.656C18.4305 13.656 18.9345 13.506 19.2825 13.206C19.6305 12.906 19.8045 12.492 19.8045 11.964V11.712C19.8045 11.196 19.6305 10.794 19.2825 10.506C18.9345 10.206 18.4305 10.056 17.7705 10.056C17.1105 10.056 16.6065 10.206 16.2585 10.506C15.9105 10.794 15.7365 11.196 15.7365 11.712V11.964C15.7365 12.492 15.9105 12.906 16.2585 13.206C16.6065 13.506 17.1105 13.656 17.7705 13.656ZM25.5035 21.198C24.8795 21.198 24.4355 21.066 24.1715 20.802C23.9075 20.538 23.7755 20.214 23.7755 19.83V19.29C23.7755 18.906 23.9075 18.582 24.1715 18.318C24.4355 18.054 24.8795 17.922 25.5035 17.922C26.1275 17.922 26.5715 18.054 26.8355 18.318C27.0995 18.582 27.2315 18.906 27.2315 19.29V19.83C27.2315 20.214 27.0995 20.538 26.8355 20.802C26.5715 21.066 26.1275 21.198 25.5035 21.198ZM30.8425 21L35.3245 10.362H30.8425V12.666H28.8265V8.436H37.6645V10.488L33.3265 21H30.8425Z" fill="black"/>
</svg>
